<svg id="Layer_1" data-name="Layer 1" xmlns="http://www.w3.org/2000/svg" viewBox="0 0 470.3 470"><defs><style>.cls-1{fill:none;}.cls-2{fill:#161616;}</style></defs><title>favicon</title><path class="cls-1" d="M257,290.15c4.3-5.2,4.5-20.4,4.5-20.5l-.5.7s-10.5,12.5-12,15.4,0,14,0,14S252.6,295.35,257,290.15Z"/><path class="cls-1" d="M257.3,252c2.6-3.3,0-13.5,0-13.5L251.2,225a58.6,58.6,0,0,0-1.5,11.7c0,4.7,1.5,9.4,1.8,12.4.7,6.9-1.8,11.2-1.8,11.2S254.7,255.25,257.3,252Z"/><path class="cls-1" d="M153.8,288.85s-2.1-3.9-6.5,0-8.5,11.1-8.5,11.1,3.3,4.1,7.2,3.9,26.8,0,26.7,0l-10.2-6.3C159.2,295.55,153.8,288.85,153.8,288.85Z"/><path class="cls-1" d="M165.9,280.25c-3.1,3.1-3.3,8.3-3.3,8.3s18.9,10.2,20.2,8.5-3.9-14.1-6.7-16.8A7.24,7.24,0,0,0,165.9,280.25Z"/><path class="cls-1" d="M289.6,283.65l-8.9-9.6s-5.1,9.2-5.9,12.6c-.7,3.1,0,12.6,0,12.6Z"/><path class="cls-1" d="M189.9,263.65c4.4.7,8.3,1.3,8.3,1.3s-5.7-16.3-8.7-16.1-5.2,11.3-5.2,11.3S185.5,263,189.9,263.65Z"/><path class="cls-1" d="M299.6,269.25c-1-3.2-1.9-6.4-2.6-9.6-.4-3.2,0-13,0-13h-7.4v13l3.9,11.7Z"/><path class="cls-1" d="M382.3,337.35c-2.9.4-4.8,3.2-7.2,2.2-4.8-2-5.7-8.2-7.6-11.3s-4.4-3-4.4-3-6.1.2-14.8-3.7-15.2-11.3-15.2-11.3-15.7-3.5-29.6,2.6c-2.2.9-3.6,4.8-6.5,10.4-1.9,3.6-5.6,7.8-6.5,13-.5,2.6-3,5-5.7,7.4-3.4,3-7.1,6.2-7.4,10-.3,3.6,1,7.9,0,11.7-1.3,4.5-4.7,8.4-4.4,13,.3,3.8,3,7.9,3.5,11.7,1,6.4-2.9,14.3-1.7,20,.15.69.33,1.32.52,1.92a174.69,174.69,0,0,0,91.47-48.47,178.51,178.51,0,0,0,21.35-25.78C386.27,337.56,384.13,337.06,382.3,337.35Z"/><path class="cls-1" d="M207.2,383.05c2.1-5.9,4.1-9.2,4.1-14.8s.2-18,.2-18-6.9-8.9-11.7-10-17.2-1.9-34.4-3.9-39.2-9.4-39.2-9.4.3,7.9-4.3,11.3-4-3.8-8.3-2-4.6,8.7-10.4,9.6a6.11,6.11,0,0,1-.73,0,177.55,177.55,0,0,0,15.42,17.6A174.78,174.78,0,0,0,209.5,412c0-.9-.05-1.84-.1-2.85C208.9,398.55,206,386.25,207.2,383.05Z"/><path class="cls-1" d="M311,281.25c-2.8,1.4-8,9.7-8,9.7l12.6,8.2V294l12.6-12.7S314.9,279.45,311,281.25Z"/><path class="cls-1" d="M299.2,217.85s-1.1-9,0-11.7c.9-2.3,6.5-7,6.5-7v-7.8l-12.2,14.8.1,14.7Z"/><path class="cls-1" d="M229.2,253.65c-.4-3.9-10.4-14.6-10.4-14.6s-1.3,3.9-3.9,5.2-6.5.4-6.5.4l18.7,32.8C227.1,277.55,229.6,257.55,229.2,253.65Z"/><path class="cls-1" d="M286.5,232.65c.5-6.8-7.4-26.5-7.4-26.5l-4.4,29.1,4.4,13.5S286.1,237.05,286.5,232.65Z"/><path class="cls-1" d="M311.1,236.25l2.4-8.7s8.7-.9,9.1-3.3c.2-1.3-3.9-3.3-3.9-3.3v-8.7s-6.6-1.1-8.3,0c-5.5,3.5-10.9,23.9-10.9,23.9Z"/><path class="cls-1" d="M184.3,271.85c-4.6-.9-2.6,8.9-2.6,8.9l26.8,24.7s0-18.4-2-22.4c-.7-1.5-6.2-.6-10.2-2.5C189.9,277.55,188.9,272.75,184.3,271.85Z"/><path class="cls-2" d="M463.8,252.35h-.6s5.9-6.1,4.8-11.7c-.9-4.8-4-5.4-6.8-7.9.6-3,.7-6.3,1.6-9.2,2-6.1,4.8-5.1,5.9-10.4s-4-6-5.4-15.6c-.7-5.3,2.3-13.7.3-18.2-1.8-4.1-1.5-13-5.5-19.2-3.2-4.9-10.6-6.8-13-12.2-3.8-8.5-8-3.1-7.3-11.6.3-3.2-7-2.7-7.7-6.8-1.1-5.8-2.4-6.1-7.5-9.8,2.3-2.2,4.5-4.3,4.2-5.5-1.3-6.1-3-5.2-11.3-10.4s1.5-3.7-8-12-20.4-7-25.7-10.9.3-8.2-3-12.6c-2.4-3.1-9.2-1.1-12.6-3.9-7.4-6.1,2-17.8-16.8-15-5.3.8-4.1,13.5-7.2,20.9v0c-2.39,5.79-2.8,10.68-9.59,7.18-4.1-2.11-1-6.66,1.43-11.76,1.62-3.35,3-7,1.87-10.24a15.8,15.8,0,0,0-11-9.1c-5.1-1-11.5,5.1-17.8,5-6.1-.1-9.2-5.3-14.4-6.3-6.27-1.17-9.19,1.14-13.3,1.41-1.46-.27-2.92-.54-4.39-.78-2.64-1.94.49-6.83-6.31-6.83-6.2-.06-8.48,2.15-11.6,4.65A25.42,25.42,0,0,1,246.5,49c-18.8,4.8-35-6.5-44.8,6.3-2.3,3-2.52,7.71-2.21,13q-3.8.94-7.53,2.06a13,13,0,0,0-6.16-5.49c-8.8-4.4-8.6-1.8-18.2-5.2-.74-.26-1.48-.56-2.23-.9-5-2.25-10.19-5.8-14.37-5.1-5.1.8-9,6.3-13.6,9.6-4.6-5.8-12.1-9.8-27-4.9-16.1,5.3-17.7,17-21.1,27-3.2,9.2-7.5,22.3-14.6,26.3-11.3,6.4-33.4,14-36.5,24.3-2.8,9.2.7,11.2,3.9,13.5a9.22,9.22,0,0,0-4.7,1.9c-5.7,3.9-4,4.7-9.4,9.4-3.2,2.8-8.1,5-9.3,8.1-1.3,3.7,1.2,8.4,1.4,12.6.2,5.6-2.3,5.6-1.6,10.3s5.2,3.6,9.2,11.1a14.76,14.76,0,0,1,1.3,3.5c-3.6.2-5.6-1.2-10,1.7-5.7,3.9-4,4.6-9.4,9.4-3.2,2.8-8.1,5-9.3,8.1-1.3,3.7,1.2,8.4,1.4,12.6.3,5.6-2.3,5.7-1.6,10.3s5,3.7,9,10.6c.4.9.8,1.8,1.2,2.8.9,2.7,1.4,5.9,2.3,8.7v.1c.1,6.5-5.3,13.3-5.7,20.2-.2,2.9,4.4,4.9,4.6,7.6.1,1.9-4.7,6.5-4.6,9.4.4,8.2,6.7,16.3,11.8,23.7,2.4,3.5,1.9,8.4,5,10.2,12.2,7,18.9-4.4,23.5-1.3s6.1,12.4,14.3,13.7c3.4.5,5-3.9,9.6-6.7,2.42-1.49,5.7,1.17,8.32.59a196,196,0,0,0,340.73-26.45,10.25,10.25,0,0,0,5.15,2.46c5.5.4,11.1-5,11.1-5s3.9,1,5.5-1,.9-6.6,3.7-8c3.7-1.9,10.3-.3,11.8-2.4,5.9-8.7-2.8-13.3,1.1-20s11.5-7.2,11.7-18.1A23.66,23.66,0,0,0,463.8,252.35Zm-274.3-3.5c3-.2,8.7,16.1,8.7,16.1s-3.9-.6-8.3-1.3-5.6-3.5-5.6-3.5S186.5,249.05,189.5,248.85Zm-5.2,23c4.6.9,5.6,5.7,12,8.7,4,1.9,9.5,1,10.2,2.5,2,4,2,22.4,2,22.4l-26.8-24.7S179.7,271,184.3,271.85Zm-18.4,8.4a7.24,7.24,0,0,1,10.2,0c2.8,2.7,8,15.1,6.7,16.8s-20.2-8.5-20.2-8.5S162.8,283.35,165.9,280.25Zm-18.6,8.6c4.4-3.9,6.5,0,6.5,0s5.4,6.7,8.7,8.7l10.2,6.3c.1,0-22.8-.2-26.7,0s-7.2-3.9-7.2-3.9S142.9,292.75,147.3,288.85Zm64,79.4c0,5.6-2,8.9-4.1,14.8-1.2,3.2,1.7,15.5,2.2,26.1,0,1,.08,2,.1,2.85a174.78,174.78,0,0,1-91.61-48.5,177.55,177.55,0,0,1-15.42-17.6,6.11,6.11,0,0,0,.73,0c5.8-.9,6.1-7.8,10.4-9.6s3.7,5.4,8.3,2,4.3-11.3,4.3-11.3,22,7.4,39.2,9.4,29.6,2.8,34.4,3.9,11.7,10,11.7,10S211.3,362.65,211.3,368.25Zm15.8-90.8-18.7-32.8s3.9.9,6.5-.4,3.9-5.2,3.9-5.2,10,10.7,10.4,14.6S227.1,277.55,227.1,277.45Zm101.1,3.8L315.6,294v5.2L303,291s5.2-8.3,8-9.7C314.9,279.45,328.2,281.25,328.2,281.25Zm-17.8-69c1.7-1.1,8.3,0,8.3,0V221s4.1,2,3.9,3.3c-.4,2.4-9.1,3.3-9.1,3.3l-2.4,8.7-11.6-.1S304.9,215.75,310.4,212.25Zm-4.7-20.9v7.8s-5.6,4.7-6.5,7c-1.1,2.7,0,11.7,0,11.7l-5.6,3-.1-14.7Zm-16.1,55.3H297s-.4,9.8,0,13c.7,3.2,1.6,6.4,2.6,9.6l-6.1,2.1-3.9-11.7Zm0,37-14.8,15.6s-.7-9.5,0-12.6c.8-3.4,5.9-12.6,5.9-12.6Zm-10.5-77.5s7.9,19.7,7.4,26.5c-.4,4.4-7.4,16.1-7.4,16.1l-4.4-13.5Zm-27.6,42.9c-.3-3-1.8-7.7-1.8-12.4a58.6,58.6,0,0,1,1.5-11.7l6.1,13.5s2.6,10.2,0,13.5-7.6,8.3-7.6,8.3S252.2,256,251.5,249.05Zm5.5,41.1c-4.4,5.2-8,9.6-8,9.6s-1.5-11.1,0-14,12-15.4,12-15.4l.5-.7C261.5,269.75,261.3,285,257,290.15ZM366.79,363.5A174.69,174.69,0,0,1,275.32,412c-.19-.6-.37-1.23-.52-1.92-1.2-5.7,2.7-13.6,1.7-20-.5-3.8-3.2-7.9-3.5-11.7-.3-4.6,3.1-8.5,4.4-13,1-3.8-.3-8.1,0-11.7.3-3.8,4-7,7.4-10,2.7-2.4,5.2-4.8,5.7-7.4.9-5.2,4.6-9.4,6.5-13,2.9-5.6,4.3-9.5,6.5-10.4,13.9-6.1,29.6-2.6,29.6-2.6s6.5,7.4,15.2,11.3,14.8,3.7,14.8,3.7,2.5-.1,4.4,3,2.8,9.3,7.6,11.3c2.4,1,4.3-1.8,7.2-2.2,1.83-.29,4,.21,5.84.37A178.51,178.51,0,0,1,366.79,363.5Z"/></svg>