<svg id="Layer_1" data-name="Layer 1" xmlns="http://www.w3.org/2000/svg" viewBox="0 0 306.03 306.03"><defs><style>.cls-1{fill:#fff;}.cls-2{fill:#161616;}</style></defs><title>tree</title><circle class="cls-1" cx="153.77" cy="152.26" r="146.77"/><path class="cls-2" d="M121.44,270.67c-.09-1.86,0-3.74.08-5.57.17-3.5.32-6.8-1-8.32-.05-.06-.58-.59-3.08-.59-.7,0-1.37,0-1.86.08,0,4.13-.26,20.93-2.3,27.32,1,1,6.73,2.68,9.07,3,.13-.62.24-1.72.31-2.44s.13-1.27.2-1.76c.27-1.8-.29-4.81-.78-7.46A37.51,37.51,0,0,1,121.44,270.67Z"/><path class="cls-2" d="M111.55,246.51c0-.2,0-.42-.07-.59a2.87,2.87,0,0,0-1-.14,5.5,5.5,0,0,0-2.93.72c-1.32,1.5-1.21,4.75-1.13,7.13s.13,3.75-.94,4.28l-.21.1H105c-.92,0-1.18-.78-1.75-2.49-.92-2.76-2.63-7.9-6.72-10.89a16,16,0,0,0-4.87-2.33A112.06,112.06,0,0,0,91,254.15c-.21,7.37-.44,15.72-1.61,19.59-.13.43.42,1.42,5.53,3.29l.94.36a33.93,33.93,0,0,0,.13-6c-.17-6.06-.12-9.8,2-10.49a1.41,1.41,0,0,1,.43-.07c1.07,0,2.23.89,3.43,7.35a24.67,24.67,0,0,1,0,7.3c-.2,1.78-.39,3.46.06,4.21.62.82,6,3.5,8.32,3.5a1,1,0,0,0,.39,0c.37-.35,1.11-2.86,1.49-8.27a195.85,195.85,0,0,0-.11-23.77A23.09,23.09,0,0,1,111.55,246.51Z"/><path class="cls-2" d="M166.86,264.47a4.65,4.65,0,0,0-.88,1.91c-.69,2.44-.61,5.24-.19,5.77a7.57,7.57,0,0,0,3.16.56,6.82,6.82,0,0,0,.69,0,46,46,0,0,1-2-5.83C167.37,266,167.07,265,166.86,264.47Z"/><path class="cls-2" d="M130.06,267.95l-.79-.11-1.07-.18a11.21,11.21,0,0,0-1.8-.24,1,1,0,0,0-.48.07,2.87,2.87,0,0,0-1.29,2,2.26,2.26,0,0,0,.41,1.87c.09.11.69.66,3.28.68h1.12a6.13,6.13,0,0,0,2.56-.35c.54-.41.58-2.16.07-3.22C131.93,268.19,130.8,268,130.06,267.95Z"/><path class="cls-2" d="M89.07,250.21V250l-.25.06Z"/><path class="cls-2" d="M156.47,251.53c0-.36-.7-.58-1.35-.58a2.34,2.34,0,0,0-1.57.5c-1.87,1.92-1.39,9.9-1.13,14.18.21,3.48.24,4.15-.24,4.66l-.3.31-.48,0a1.16,1.16,0,0,1-1-.57,48.53,48.53,0,0,1-2.28-4.33c-2.21-4.47-5.56-11.24-8.24-13.25a6.77,6.77,0,0,0-3.08-.71,2.89,2.89,0,0,0-.76.08c-.07,6.94,0,29.2.29,36.53.44.41,2.54,1,5.11,1a6.06,6.06,0,0,0,2.94-.45c.71-.94.13-5.25-.26-8.1-.55-4.07-.79-6.24.05-7.2a1.42,1.42,0,0,1,1.09-.5h.11c1.58.11,3.11,2.75,7.06,16.9l.18.65a2,2,0,0,0,1,.17c2.51,0,5.43-1.62,5.45-2.28.21-6.65-.7-15.85-1.5-24C157.09,259.67,156.63,255.05,156.47,251.53Z"/><path class="cls-2" d="M114.12,254.43l.33,0,.76-.08a8,8,0,0,1-1.12-.41Z"/><path class="cls-2" d="M80.2,250A128.15,128.15,0,0,0,77,264.57c.57,1.23,7.29,6.41,9.81,7.33,1.14-4.81,1.89-17.17,2-19.61a22.84,22.84,0,0,0-8.34-2.3Z"/><path class="cls-2" d="M114.2,251.59c.49.6,2.53,1.24,4.78,1.24a5.57,5.57,0,0,0,2.29-.36,4,4,0,0,0,1.21-2.15,4.4,4.4,0,0,0,.14-2.69c-.5-.89-4.93-2.62-7.87-2.62a2.67,2.67,0,0,0-1.17.18,8.82,8.82,0,0,0,0,1c.14,1.17.28,2.77.4,4.67A1.93,1.93,0,0,0,114.2,251.59Z"/><path class="cls-2" d="M88.14,248.16h.23c.37-.81.38-4.46.21-6.09-.32-.7-4-2.24-6.47-2.24a2.56,2.56,0,0,0-.69.07c-.08.42-.2.94-.33,1.52a36.64,36.64,0,0,0-.71,3.71C81.08,246.09,86,248.16,88.14,248.16Z"/><path class="cls-2" d="M173.71,263.37c0-.21,0-.4-.07-.6-.18-.59-.35-1.17-.51-1.72-.91-3.11-1.71-5.81-4.08-8.49l-.34-.32a24,24,0,0,0-7.63-1.21,7.07,7.07,0,0,0-2.22.24c.24,4,.67,9.25,1.12,14.8.8,9.84,1.63,20,1.42,23.48a3.53,3.53,0,0,0,1.29.17,16.36,16.36,0,0,0,4.87-.84c.4-.22.46-2,.5-2.89.07-2,.15-4.17,2-4.48a3.05,3.05,0,0,1,.51,0c2.4,0,2.85,2.73,3.17,4.72a6.83,6.83,0,0,0,.61,2.33h0a3.67,3.67,0,0,0,.63,0c2.27,0,6-1,6.77-1.71a53.17,53.17,0,0,0-5.2-16.94,34.84,34.84,0,0,1-2.38-5.44A1.94,1.94,0,0,1,173.71,263.37Zm-2,10.42c-.24.4-.79.92-2.79.92-.15,0-3.71,0-4.74-1.33-1.34-1.72-.69-6.83.43-9.12.76-1.55,1.68-1.88,2.32-1.88a2,2,0,0,1,.91.22c.65.33.9,1.09,1.67,3.69a38.3,38.3,0,0,0,2.23,6.21A1.29,1.29,0,0,1,171.73,273.79Z"/><path class="cls-2" d="M77.22,236a8.57,8.57,0,0,0-4.14-1.31,1.74,1.74,0,0,0-.72.11,6.61,6.61,0,0,0-.58,1.37,4.52,4.52,0,0,1-1.33,2.32,3,3,0,0,1-1.66.42,3.88,3.88,0,0,1-2.41-.72,4.88,4.88,0,0,1-1.11-2.37,5.47,5.47,0,0,0-.54-1.45,20,20,0,0,0-9.86-2,18.45,18.45,0,0,0-8.26,2.78c.17.87,1,2.41,3.06,4.47,3.4,3.44,8.17,6.47,10.21,6.47H60c.39-.09,1.26-1.46,1.72-2.19,1-1.58,1.94-3.07,3.33-3.07a1.82,1.82,0,0,1,.41,0c1.48.34,1.21,2,1,3.27-.12.75-.33,2.13,0,2.29a.67.67,0,0,0,.25.06c.44,0,1-.8,1.41-1.39.55-.79,1.07-1.54,2-1.54a1.42,1.42,0,0,1,.76.23c2,1.27.25,4.17-1.62,7.25-1,1.58-2.28,3.75-2.21,4.57.13,1.54,5.33,6.68,7,6.88l.29,0c.78,0,1-1,1.53-5.35.28-2.22.67-5.27,1.37-9.13C79.15,237.5,78.3,236.85,77.22,236Z"/><path class="cls-2" d="M81.18,248A10.73,10.73,0,0,1,79.45,247c-.07.39-.14.8-.22,1.22a3.1,3.1,0,0,1,1.21-.2C80.62,248,80.88,248,81.18,248Z"/><path class="cls-2" d="M216.25,242.23c4.49,8.3,7.59,21.93,8.27,26.9,1.53-.4,5.13-3,5.55-4s-.46-2.74-1.14-4.25c-.82-1.82-1.59-3.54-1.08-4.86a2.21,2.21,0,0,1,1.22-1.24,1.85,1.85,0,0,1,.74-.16c1.59,0,2.54,1.91,3.65,4.12.49,1,1.64,3.3,2.17,3.31,1.77-.3,8.89-6.26,9.43-7.58-.3-1.79-2.86-2.63-5.33-3.44s-4.59-1.5-5-3.28c-.33-1.39.71-2.42,1.71-3.41s2-1.94,1.93-3.25a4,4,0,0,0-.6-1.83c-.37-.38-.75-.75-1.12-1.09a10.29,10.29,0,0,1-2.18-2.5,8.39,8.39,0,0,0-4.69-1.15c-5.14,0-11.64,2.74-13.37,5.64A2,2,0,0,0,216.25,242.23Zm5.22-.23c.8-1.44,3.28-2,5.17-2,1.17,0,3.26.2,4,1.53s0,3.1-.47,4.07c-.95,1.85-2.71,3.92-4.37,4.07h-.18c-1.5,0-2.69-1.65-3.27-2.63C221.5,245.59,220.73,243.35,221.47,242Z"/><path class="cls-2" d="M239.77,243.43a6.5,6.5,0,0,1-.46.72A2.51,2.51,0,0,0,239.77,243.43Z"/><path class="cls-2" d="M237.84,245.78c-.52.52-1.24,1.23-1.17,1.52.17.7,2.12,1.33,3.68,1.84l.25.08a11.46,11.46,0,0,1-1.75-2.57,2.19,2.19,0,0,1,0-1.93C238.51,245.12,238.16,245.47,237.84,245.78Z"/><path class="cls-2" d="M239.36,238.05c1.32,1.38,2.53,3,2.54,4.7a4.08,4.08,0,0,1-1.27,2.92c.06.42.77,1.85,3.58,4.61a28.83,28.83,0,0,0,4.67,3.88c2.88-.22,12.12-10.83,14.11-16.1a7.8,7.8,0,0,0-1.56-.37c-.64.09-2.46,2.41-3.43,3.66-1.9,2.44-2.95,3.71-4.11,3.71a1.46,1.46,0,0,1-1.24-.71c-1.1-1.73.83-3.61,2.7-5.42a17.48,17.48,0,0,0,1.94-2.07c0-.41-1.38-1.58-3-2.36-.44,0-1.48,1.05-2,1.62-1,1-1.79,1.82-2.75,1.82a1.57,1.57,0,0,1-1.39-.86c-.77-1.35.55-2.49,1.51-3.32a8.44,8.44,0,0,0,.91-.86,1.94,1.94,0,0,0-.74-.67c-.2-.13-.43-.29-.7-.49a5.48,5.48,0,0,0-3.23-.79c-3.54,0-7.77,1.65-9.19,3.13a1.84,1.84,0,0,0-.37.52A16.15,16.15,0,0,1,239.36,238.05Z"/><path class="cls-2" d="M294,93.45A153.5,153.5,0,1,0,306,153,152.49,152.49,0,0,0,294,93.45ZM40.37,233.54a2.38,2.38,0,0,1-.47-3.42c.39-.46,1.46-.52,2.42-.71s1.91-.5,2.36-.06c.62.61,1.21,2,.74,2.71A5.23,5.23,0,0,1,43,233.3,3.69,3.69,0,0,1,40.37,233.54Zm225.48,0a5.28,5.28,0,0,1-2.73-.06,3.71,3.71,0,0,1-2.43-1,2.36,2.36,0,0,1,1.2-3.23c.56-.22,1.54.23,2.47.51s1.93.45,2.12,1.06C266.74,231.68,266.61,233.16,265.85,233.58Zm16.64-25.88c-4.27,10.09-5.05,13.16-11.48,21.92-1.44-.14-2.8-1.28-4.09-1.41a146.41,146.41,0,0,0-20.16-.93c-9.61,0-11,2.5-16.61,4.25-4.34,1.35-7.49.9-12.51,4.72a23.08,23.08,0,0,1,12.14-3.72,11.33,11.33,0,0,1,4.86,1,4.07,4.07,0,0,1,.6-.81c2-2,6.82-3.75,10.63-3.75a7.28,7.28,0,0,1,4.43,1.19c.23.17.43.3.61.42a3.74,3.74,0,0,1,1.53,1.63,1.5,1.5,0,0,1,.16,1,2.58,2.58,0,0,1,2.59-.43c.59.29,3.57,1.81,4,3.64a2.22,2.22,0,0,1,.07.45,3.09,3.09,0,0,1,2.42-1.09c1,.13,2.67.47,3.22,1.34a1.31,1.31,0,0,1,.16,1.1c-1.6,5.22-12,18-16.28,18h-.08a4.28,4.28,0,0,1-1.82-.9,5.27,5.27,0,0,1-.87,1.29c-2.09,2.43-8.52,7.45-10.33,7.51h0c-1.83,0-2.9-2.15-4-4.42-.53-1.07-1.42-2.86-1.9-3a.78.78,0,0,0-.06.12c-.21.54.51,2.14,1,3.31.93,2.06,1.89,4.2,1.14,5.88s-5.6,5.24-7.72,5.24a1.68,1.68,0,0,1-.92-.27,4.76,4.76,0,0,1-1.26,2.43c-2.84,3.26-10.61,7-14.58,7h0a3.48,3.48,0,0,1-2.17-.6c-4-3.09-7.62-16.79-8.47-20.15l-.72.1c-.75.1-3,.4-3.08.8-.11,1.25,1.67,4.38,3.38,7.4,2.86,5,6.1,10.75,5.21,14.7-.55,2.41-8.32,5-11.36,5h0a2.49,2.49,0,0,1-2.17-.89c-1.93-3.08-2.1-7.46-2.27-11.69-.18-4.69-.36-9.12-2.86-10.8a1.41,1.41,0,0,0-.76-.14,15.33,15.33,0,0,0-3.07.52,20.33,20.33,0,0,1-2.54.49,32,32,0,0,0,1.78,3.86c3.36,6.16,5,14.13,5.45,17.88a1.58,1.58,0,0,1-.44,1.26c-1.33,1.5-6.23,2.46-8.34,2.46a3.31,3.31,0,0,1-1.62-.31c-1.09-.61-1.33-2.13-1.59-3.74s-.55-3-1.2-3l-.18,0a7.14,7.14,0,0,0-.35,2.58c-.07,1.86-.14,3.78-1.51,4.56a17,17,0,0,1-5.85,1.1,3.72,3.72,0,0,1-2.84-.84l-.09-.12a11.38,11.38,0,0,1-6.14,2.06c-2.14,0-2.74-1-2.91-1.63l-.18-.65c-2.56-9.18-4-13.13-4.88-14.68,0,1.23.29,3.21.49,4.67.65,4.82,1,8.09-.16,9.6-.61.8-2.13,1.21-4.51,1.21-.71,0-7-.08-7.1-2.76-.14-3.3-.23-9.76-.28-16.49a2.82,2.82,0,0,1-.87,1.18c-.83.64-2.06.77-3.77.77H128.3c-2.24,0-3.73-.4-4.57-1.17q.14.83.31,1.73c.52,2.8,1.11,6,.79,8.11-.07.46-.13,1.05-.19,1.66-.28,2.77-.43,4.3-1.74,4.3h0c-1.37,0-9.43-1.81-11.19-3.9l0,0a2.63,2.63,0,0,1-1.47.37c-2.82,0-9.16-3-10-4.47s-.58-3.24-.33-5.46a22.74,22.74,0,0,0,.05-6.72,21.6,21.6,0,0,0-1.51-5.44c-.6,1.29-.47,5.9-.41,8.23.13,4.44.15,6.81-.8,7.79a1.55,1.55,0,0,1-1.85.27c-.17-.09-.63-.25-1.11-.43-2.56-.94-6.66-2.45-6.84-4.88-2,0-9.32-5.11-11.49-7.69a2.59,2.59,0,0,1-.82-1.89,3.18,3.18,0,0,1-.71.09,4.45,4.45,0,0,1-.54,0c-2.34-.29-8.49-6-8.71-8.69-.12-1.46,1.09-3.46,2.5-5.77.48-.79,1.19-2,1.68-2.95a3.2,3.2,0,0,1-2.47,1.45,2.64,2.64,0,0,1-1-.21c-1.82-.76-1.48-3-1.25-4.45,0-.18.06-.4.09-.61-.38.47-.87,1.25-1.18,1.74-1,1.54-1.89,3-3.22,3.11h-.32c-2.92,0-8.21-3.59-11.63-7.06-1.69-1.71-3.69-4.17-3.66-6.21,0-1.71,6.16-4.14,10.14-4.44,4.86-.36,10.1,1.48,11.26,2.39a4.64,4.64,0,0,1,1.22,2.47,5.57,5.57,0,0,0,.52,1.42,2.46,2.46,0,0,0,1.08.21,1.5,1.5,0,0,0,.54-.07,6.37,6.37,0,0,0,.56-1.33c.36-1,.74-2.1,1.6-2.51a3.68,3.68,0,0,1,1.58-.31,10.36,10.36,0,0,1,5.36,1.72,4.3,4.3,0,0,1,1.89,3.78,3.54,3.54,0,0,1,1.78-.38c2,0,6.54,1.14,8,3a1.74,1.74,0,0,1,1.32-.52c1.9,0,5.41,2.12,6.23,2.72,3.64,2.65,5.55,6.67,6.68,9.7-.06-2.58,0-5.71,1.66-7.56.9-1,3.14-1.4,4.43-1.4a5.14,5.14,0,0,1,1.54.2,3.27,3.27,0,0,1,2.77-1c2.92,0,8.5,1.66,9.61,3.63.78,1.38.22,3.59,0,4.24s-.9,2.67-2.19,3.35a4.87,4.87,0,0,1-1.38.43,3,3,0,0,1,1.23.81c1.83,2.13,1.65,5.81,1.47,9.72,0,.66-.06,1.33-.08,2a4.49,4.49,0,0,1,1.49-1.43c.84-.48,2.18-.33,3.63-.06l1,.17.75.1c1.45.18,3,.38,3.55,1.63a5,5,0,0,1,.2.5c0-6.87,0-13.41,0-16.51,0-.43.22-1.83,2.76-1.83a8.41,8.41,0,0,1,4.28,1.11c3.06,2.3,6.39,9,8.83,14l.49,1s0,0,0-.07c-.42-6.92-.61-13.33,1.69-15.7a4.23,4.23,0,0,1,3-1.1,3.89,3.89,0,0,1,2.43.75c.48-.34,1.41-.67,3.53-.67a30.73,30.73,0,0,1,7.08.92,2.27,2.27,0,0,1,1.39-.34c15.59-.28,21.59-2.31,24.47-3.28a7.68,7.68,0,0,1,2.32-.56,2.34,2.34,0,0,1,1.5.54l.86-.22a7.72,7.72,0,0,1,1.6-.23,1.75,1.75,0,0,1,1.09.3c2.15,1.59,2.91,4.43,3.64,7.17s1.42,5.33,3.36,6.19a2.16,2.16,0,0,0,.54.05,3.18,3.18,0,0,0,1-.14c.74-2.23-.37-5-1.46-7.64s-2.11-5.2-1.54-7.51c.46-1.86,4.57-3.47,6.39-3.47a2.91,2.91,0,0,1,.75.09,4.61,4.61,0,0,1,.63-1.75,8.66,8.66,0,0,1,2-2.19c-3.62,2.28-16.13,3-16.13,3s-.45,0-3.26.21-2.57,2.39-4.44,2.19-3.33-4.27-6.77-4.58-5.93,3.75-5.93,3.75l-3.23-.73a62.12,62.12,0,0,0-2.91-7.29c-1.06-2.19-2.65-3.24-3.33-6.45-.58-2.71,1.28-6.52.83-9.58-.26-1.79-1.54-3.79-1.67-5.62-.15-2.18,1.51-4.09,2.08-6.25.48-1.82-.13-3.89,0-5.62s1.91-3.33,3.54-4.79c1.3-1.17,2.51-2.3,2.71-3.54.41-2.48,2.23-4.51,3.12-6.25,1.4-2.7,2-4.53,3.12-5,6.66-2.91,14.16-1.25,14.16-1.25a24.49,24.49,0,0,0,7.29,5.41,17.51,17.51,0,0,0,7.08,1.77,2.53,2.53,0,0,1,2.08,1.46c.85,1.46,1.33,4.44,3.64,5.41,1.15.49,2.07-.84,3.44-1s3.4.63,4.37-.1a5.17,5.17,0,0,0,2-3.33s2.91,1.77,5.62.62.94-5.62,3.44-6.35c1.1-.32,3.13,2.66,5.21,2.81,2.66.19,5.31-2.39,5.31-2.39s1.81.52,2.6-.42.43-3.17,1.77-3.85c1.78-.9,4.94-.13,5.62-1.15,2.81-4.16-1.35-6.35.52-9.58s5.52-3.44,5.62-8.64a11.52,11.52,0,0,0-3.12-8.22h-.31s2.81-2.91,2.29-5.62c-.44-2.28-1.91-2.56-3.23-3.78a37.75,37.75,0,0,1,.77-4.38c1-2.91,2.3-2.43,2.81-5s-1.93-2.86-2.57-7.46c-.35-2.56,1.1-6.56.14-8.72-.87-2-.72-6.25-2.61-9.17-1.53-2.36-5.07-3.25-6.22-5.82-1.81-4.08-3.83-1.49-3.48-5.54.13-1.52-3.35-1.31-3.71-3.25-.51-2.78-1.12-2.92-3.61-4.67,1.11-1,2.13-2.05,2-2.62-.62-2.91-1.46-2.5-5.41-5s.73-1.77-3.85-5.73-9.79-3.33-12.28-5.21.15-3.93-1.46-6c-1.12-1.48-4.4-.52-6-1.87-3.54-2.94.94-8.54-8-7.18-2.54.38-2,6.44-3.44,10-1.14,2.77-1.35,5.1-4.58,3.44s2.91-6.56,1.56-10.51a7.4,7.4,0,0,0-5.21-4.37c-2.46-.49-5.49,2.43-8.54,2.39s-4.41-2.55-6.87-3c-3.59-.68-4.89,1-7.6.62s-.19-3.62-4-3.64c-5.21,0-4.66,3.25-10.62,4.79-9,2.32-16.76-3.12-21.45,3-2,2.56-.78,7.68-.56,12.52a3.06,3.06,0,0,1-.93-.48c-3.52-3.1-1.92-5.37-6.13-7.47s-4.12-.87-8.71-2.49c-2.75-1-5.66-3.23-8-2.87s-4.31,3-6.52,4.61c-2.19-2.78-5.81-4.68-12.9-2.35-7.73,2.54-8.47,8.14-10.1,12.91-1.51,4.42-3.59,10.67-7,12.6-5.44,3.09-16,6.72-17.49,11.66-1.32,4.43.34,5.36,1.85,6.47a4.58,4.58,0,0,0-2.24.9c-2.72,1.86-1.93,2.23-4.48,4.48-1.52,1.35-3.9,2.37-4.46,3.9-.64,1.75.56,4,.65,6,.11,2.68-1.12,2.7-.75,4.95s2.48,1.74,4.43,5.3a8.12,8.12,0,0,1,.63,1.66c-1.72.09-2.7-.59-4.77.83-2.72,1.86-1.93,2.23-4.48,4.48-1.52,1.35-3.9,2.37-4.46,3.9-.64,1.75.56,4,.65,6,.11,2.68-1.12,2.7-.75,4.95s2.38,1.76,4.29,5.06c.18.42.39.86.6,1.34.43,1.28.68,2.85,1.11,4.15v0c.07,3.12-2.53,6.36-2.71,9.68-.07,1.4,2.1,2.35,2.19,3.64.07.93-2.25,3.09-2.19,4.48.18,3.94,3.22,7.8,5.62,11.35,1.13,1.66.9,4,2.39,4.89,5.83,3.33,9.06-2.08,11.24-.62s2.91,5.93,6.87,6.56c1.65.26,2.38-1.84,4.58-3.23,1.23-.77,3,.77,4.27.21,2-.86-.21-3.23,3.23-3.64s5.1,3.12,7.91,2.71,2.91-3.75,5-4.58,1.77,2.6,4,.94,2.08-5.41,2.08-5.41,10.51,3.54,18.74,4.48,14.16,1.35,16.45,1.87,5.62,4.79,5.62,4.79-.1,5.93-.1,8.64-.94,4.27-2,7.08c-.56,1.52.79,7.41,1,12.49.21,4.29-.1,6.25-.73,8s-5.79,6.46-6.3,6.93c.18-.18.59-.84-2.91-.75-1.5,0-2.42-.57-3.74,1.07-.57.71-1.68,2.41-2.37,1.48-1.73-2.31-7.42-4-13.73-3.71-2.08.09-7.85,3.33-12.85-.68A13.89,13.89,0,0,0,86,236.37s-5.39-3.41-15-4.69c-6.13-.81-16.56-5.39-27.31-3.77-4.3.65-7.68,1.29-8.62,1.48a116.24,116.24,0,0,1-11.5-21.68,140.56,140.56,0,0,1,259-109.39,141,141,0,0,1,0,109.39ZM138.83,148a5.59,5.59,0,0,0,3.12-.21,4.88,4.88,0,0,0,1.87-2.5s4.79,5.1,5,7-1.05,11.44-1.05,11.44Zm20.61,2.08a45.83,45.83,0,0,1-.84-5.93,25.44,25.44,0,0,1,.73-5.62l2.91,6.45s1.25,4.89,0,6.45-3.65,4-3.65,4A9.46,9.46,0,0,0,159.45,150.06ZM164,160.27l.25-.32s-.1,7.29-2.19,9.77l-3.85,4.6s-.73-5.31,0-6.69S164,160.27,164,160.27Zm9.37,1.74,4.27,4.58-7.08,7.5a36.07,36.07,0,0,1,0-6A39.79,39.79,0,0,1,173.35,162Zm-2.81-18.53,2.08-14s3.8,9.42,3.54,12.7c-.17,2.11-3.54,7.7-3.54,7.7Zm22.9-5.31c-.2,1.14-4.37,1.56-4.37,1.56l-1.15,4.16h-5.52s2.56-9.75,5.21-11.45c.83-.54,4,0,4,0v4.16S193.55,137.57,193.45,138.17Zm2.71,27.33-6,6.08v2.5l-6-4s2.49-4,3.85-4.63C189.79,164.63,196.15,165.51,196.15,165.51Zm-10.83-39.3s-2.7,2.27-3.12,3.33c-.52,1.31,0,5.62,0,5.62l-2.71,1.46v-7.08l5.83-7.08Zm-4.16,22.69a60.62,60.62,0,0,0,0,6.25,46.09,46.09,0,0,0,1.25,4.58l-2.91,1-1.87-5.62V148.9ZM116.87,169a6.75,6.75,0,0,1,1.56-4,3.46,3.46,0,0,1,4.89,0c1.35,1.25,3.85,7.18,3.23,8S116.87,169,116.87,169Zm4.89,7.27s-10.93-.1-12.8,0-3.44-1.87-3.44-1.87a26.24,26.24,0,0,1,4.06-5.31c2.08-1.87,3.12,0,3.12,0a25.61,25.61,0,0,0,4.16,4.16Zm4.27-11s-.94-4.68,1.25-4.27,2.7,2.72,5.73,4.16c1.92.91,4.53.46,4.89,1.21.94,1.94.94,10.71.94,10.71Zm1.25-9.89s1-5.31,2.5-5.41,4.16,7.7,4.16,7.7-1.87-.31-4-.62A3.46,3.46,0,0,1,127.28,155.37Z"/><path class="cls-2" d="M225.66,247.74c.54-.05,1.88-1.24,2.77-3,.61-1.19.64-1.95.53-2.15s-.82-.55-2.32-.55c-1.94,0-3.24.59-3.42.92a4.66,4.66,0,0,0,.85,3C224.82,247.32,225.5,247.73,225.66,247.74Z"/><path class="cls-2" d="M196.86,248.14c-.32-.36-.43-.36-.53-.36a7.28,7.28,0,0,0-1.68.46c-2.89,1-8.83,3-23.75,3.36,1.57,1.63,4,4.83,4.71,10.79l.24.75H176a14.07,14.07,0,0,0,2.65-.47,16.6,16.6,0,0,1,3.53-.58,3.28,3.28,0,0,1,1.87.48c3.35,2.25,3.54,7.17,3.75,12.38.15,3.92.31,8,1.9,10.61a2,2,0,0,0,.54.05c3,0,8.92-2.54,9.43-3.54.71-3.14-2.46-8.73-5-13.22-2.12-3.73-3.79-6.68-3.64-8.55s2.63-2.32,4.81-2.61a18.79,18.79,0,0,0,2.38-.42c.35-.21.68-.42,1-.62C199.64,255.32,198.35,249.81,196.86,248.14Z"/><path class="cls-2" d="M213.32,242.81c-1.47,0-4.17,1.38-4.46,2-.41,1.65.5,3.88,1.46,6.24,1.26,3.1,2.56,6.3,1.4,9.29-.43,1.12-2.1,1.24-2.79,1.24a3.58,3.58,0,0,1-1.36-.22c-2.81-1.25-3.66-4.42-4.48-7.5-.61-2.26-1.23-4.6-2.62-5.85,1.08,2.44,2.65,6.63,1.7,8.53a5.13,5.13,0,0,1-1.52,1.51l0,0a3.35,3.35,0,0,1-1.57,1l-.28.16c1.29,5.1,4.7,16.56,7.71,18.89a1.61,1.61,0,0,0,.94.18h0c3.4,0,10.61-3.47,13.08-6.29a2.42,2.42,0,0,0,.79-1.56c-1.22-8.94-4.46-21.67-7.79-27.63Z"/><polygon class="cls-2" points="224.18 270.18 224.18 269.18 224.17 269.18 224.18 270.18"/><path class="cls-2" d="M248.81,255.16v-1h0Z"/><path class="cls-2" d="M217,236.71l.59-.46q-.5.34-.94.7A3.75,3.75,0,0,0,217,236.71Z"/></svg>