<?xml version="1.0" encoding="utf-8"?>
<!-- Generator: Adobe Illustrator 21.1.0, SVG Export Plug-In . SVG Version: 6.00 Build 0)  -->
<svg version="1.1" id="Layer_1" xmlns="http://www.w3.org/2000/svg" xmlns:xlink="http://www.w3.org/1999/xlink" x="0px" y="0px"
	 viewBox="0 0 470.3 398" style="enable-background:new 0 0 470.3 398;" xml:space="preserve">
<style type="text/css">
	.st0{opacity:0.1;fill:#161616;}
</style>
<title>tree</title>
<path class="st0" d="M463.8,213.4h-0.6c0,0,5.9-6.1,4.8-11.7c-0.9-4.8-4-5.4-6.8-7.9c0.6-3,0.7-6.3,1.6-9.2c2-6.1,4.8-5.1,5.9-10.4
	s-4-6-5.4-15.6c-0.7-5.3,2.3-13.7,0.3-18.2c-1.8-4.1-1.5-13-5.5-19.2c-3.2-4.9-10.6-6.8-13-12.2c-3.8-8.5-8-3.1-7.3-11.6
	c0.3-3.2-7-2.7-7.7-6.8c-1.1-5.8-2.4-6.1-7.5-9.8c2.3-2.2,4.5-4.3,4.2-5.5c-1.3-6.1-3-5.2-11.3-10.4s1.5-3.7-8-12s-20.4-7-25.7-10.9
	s0.3-8.2-3-12.6c-2.4-3.1-9.2-1.1-12.6-3.9c-7.4-6.1,2-17.8-16.8-15c-5.3,0.8-4.1,13.5-7.2,20.9c-2.4,5.8-2.8,10.7-9.6,7.2
	s6.1-13.7,3.3-22c-2-4.6-6.1-8-11-9.1c-5.1-1-11.5,5.1-17.8,5c-6.1-0.1-9.2-5.3-14.4-6.3c-7.5-1.4-10.2,2.2-15.9,1.3
	S276.6,0,268.7,0c-10.9-0.1-9.7,6.8-22.2,10c-18.8,4.8-35-6.5-44.8,6.3c-4.1,5.4-1.6,16.1-1.2,26.2c-0.7-0.2-1.4-0.6-1.9-1
	c-7.4-6.5-4-11.2-12.8-15.6s-8.6-1.8-18.2-5.2c-5.7-2-11.8-6.8-16.6-6c-5.1,0.8-9,6.3-13.6,9.6c-4.6-5.8-12.1-9.8-27-4.9
	c-16.1,5.3-17.7,17-21.1,27c-3.2,9.2-7.5,22.3-14.6,26.3c-11.3,6.4-33.4,14-36.5,24.3c-2.8,9.2,0.7,11.2,3.9,13.5
	c-1.7,0.2-3.3,0.8-4.7,1.9c-5.7,3.9-4,4.7-9.4,9.4c-3.2,2.8-8.1,5-9.3,8.1c-1.3,3.7,1.2,8.4,1.4,12.6c0.2,5.6-2.3,5.6-1.6,10.3
	s5.2,3.6,9.2,11.1c0.6,1.1,1,2.3,1.3,3.5c-3.6,0.2-5.6-1.2-10,1.7c-5.7,3.9-4,4.6-9.4,9.4c-3.2,2.8-8.1,5-9.3,8.1
	c-1.3,3.7,1.2,8.4,1.4,12.6c0.3,5.6-2.3,5.7-1.6,10.3s5,3.7,9,10.6c0.4,0.9,0.8,1.8,1.2,2.8c0.9,2.7,1.4,5.9,2.3,8.7v0.1
	c0.1,6.5-5.3,13.3-5.7,20.2c-0.2,2.9,4.4,4.9,4.6,7.6c0.1,1.9-4.7,6.5-4.6,9.4c0.4,8.2,6.7,16.3,11.8,23.7c2.4,3.5,1.9,8.4,5,10.2
	c12.2,7,18.9-4.4,23.5-1.3s6.1,12.4,14.3,13.7c3.4,0.5,5-3.9,9.6-6.7c2.6-1.6,6.2,1.6,8.9,0.4c4.1-1.8-0.4-6.7,6.7-7.6
	s10.7,6.5,16.5,5.6s6.1-7.8,10.4-9.6s3.7,5.4,8.3,2s4.3-11.3,4.3-11.3s22,7.4,39.2,9.4s29.6,2.8,34.4,3.9s11.7,10,11.7,10
	s-0.2,12.4-0.2,18s-2,8.9-4.1,14.8c-1.2,3.2,1.7,15.5,2.2,26.1c0.4,9-0.2,13-1.5,16.8c-0.8,2.4-5.9,7.6-9.6,11.1h89
	c-1.6-4.6-3.4-9.1-5.5-13.5c-2.2-4.6-5.5-6.8-7-13.5c-1.2-5.7,2.7-13.6,1.7-20c-0.5-3.8-3.2-7.9-3.5-11.7c-0.3-4.6,3.1-8.5,4.4-13
	c1-3.8-0.3-8.1,0-11.7c0.3-3.8,4-7,7.4-10c2.7-2.4,5.2-4.8,5.7-7.4c0.9-5.2,4.6-9.4,6.5-13c2.9-5.6,4.3-9.5,6.5-10.4
	c13.9-6.1,29.6-2.6,29.6-2.6s6.5,7.4,15.2,11.3s14.8,3.7,14.8,3.7s2.5-0.1,4.4,3s2.8,9.3,7.6,11.3c2.4,1,4.3-1.8,7.2-2.2
	c3.1-0.5,7.1,1.3,9.1-0.2c2.2-1.7,3.7-4.2,4.1-7c0,0,6.1,3.7,11.7,1.3s2-11.7,7.2-13.3c2.3-0.7,6.5,5.6,10.9,5.9
	c5.5,0.4,11.1-5,11.1-5s3.9,1,5.5-1s0.9-6.6,3.7-8c3.7-1.9,10.3-0.3,11.8-2.4c5.9-8.7-2.8-13.3,1.1-20s11.5-7.2,11.7-18.1
	C470.5,224.2,468.1,218,463.8,213.4z M189.5,209.9c3-0.2,8.7,16.1,8.7,16.1s-3.9-0.6-8.3-1.3s-5.6-3.5-5.6-3.5
	S186.5,210.1,189.5,209.9z M146,264.9c-3.9,0.2-7.2-3.9-7.2-3.9s4.1-7.2,8.5-11.1s6.5,0,6.5,0s5.4,6.7,8.7,8.7l10.2,6.3
	C172.8,264.9,149.9,264.7,146,264.9L146,264.9z M182.8,258.1c-1.3,1.7-20.2-8.5-20.2-8.5s0.2-5.2,3.3-8.3c2.8-2.8,7.4-2.8,10.2,0
	c0,0,0,0,0,0C178.9,244,184.1,256.4,182.8,258.1L182.8,258.1z M181.7,241.8c0,0-2-9.8,2.6-8.9s5.6,5.7,12,8.7c4,1.9,9.5,1,10.2,2.5
	c2,4,2,22.4,2,22.4L181.7,241.8z M227.1,238.5l-18.7-32.8c0,0,3.9,0.9,6.5-0.4s3.9-5.2,3.9-5.2s10,10.7,10.4,14.6
	S227.1,238.6,227.1,238.5L227.1,238.5z M251.5,210.1c-0.3-3-1.8-7.7-1.8-12.4c0.1-3.9,0.6-7.8,1.5-11.7l6.1,13.5
	c0,0,2.6,10.2,0,13.5s-7.6,8.3-7.6,8.3S252.2,217,251.5,210.1L251.5,210.1z M257,251.2c-4.4,5.2-8,9.6-8,9.6s-1.5-11.1,0-14
	s12-15.4,12-15.4l0.5-0.7C261.5,230.8,261.3,246,257,251.2z M293.5,167.2l12.2-14.8v7.8c0,0-5.6,4.7-6.5,7c-1.1,2.7,0,11.7,0,11.7
	l-5.6,3L293.5,167.2z M279.1,167.2c0,0,7.9,19.7,7.4,26.5c-0.4,4.4-7.4,16.1-7.4,16.1l-4.4-13.5L279.1,167.2z M274.8,260.3
	c0,0-0.7-9.5,0-12.6c0.8-3.4,5.9-12.6,5.9-12.6l8.9,9.6L274.8,260.3z M293.5,232.4l-3.9-11.7v-13h7.4c0,0-0.4,9.8,0,13
	c0.7,3.2,1.6,6.4,2.6,9.6L293.5,232.4z M299.5,197.2c0,0,5.4-20.4,10.9-23.9c1.7-1.1,8.3,0,8.3,0v8.7c0,0,4.1,2,3.9,3.3
	c-0.4,2.4-9.1,3.3-9.1,3.3l-2.4,8.7L299.5,197.2z M315.6,255v5.2L303,252c0,0,5.2-8.3,8-9.7c3.9-1.8,17.2,0,17.2,0L315.6,255z"/>
</svg>
